<svg xmlns="http://www.w3.org/2000/svg" xmlns:xlink="http://www.w3.org/1999/xlink" width="219" zoomAndPan="magnify" viewBox="0 0 164.25 30.000001" height="40" preserveAspectRatio="xMidYMid meet" version="1.0"><defs><g/><clipPath id="eb69c98bf4"><path d="M 2.285156 0 L 32 0 L 32 29.03125 L 2.285156 29.03125 Z M 2.285156 0 " clip-rule="nonzero"/></clipPath><clipPath id="3a89885e97"><path d="M 0.285156 0 L 29.320312 0 L 29.320312 29.03125 L 0.285156 29.03125 Z M 0.285156 0 " clip-rule="nonzero"/></clipPath><clipPath id="584e2f01de"><path d="M 14.800781 0 C 6.785156 0 0.285156 6.5 0.285156 14.515625 C 0.285156 22.53125 6.785156 29.03125 14.800781 29.03125 C 22.820312 29.03125 29.320312 22.53125 29.320312 14.515625 C 29.320312 6.5 22.820312 0 14.800781 0 Z M 14.800781 0 " clip-rule="nonzero"/></clipPath><clipPath id="0b5c24abe2"><path d="M 0.285156 0 L 29.320312 0 L 29.320312 29.03125 L 0.285156 29.03125 Z M 0.285156 0 " clip-rule="nonzero"/></clipPath><clipPath id="c72cc9cf7c"><path d="M 14.800781 0 C 6.785156 0 0.285156 6.5 0.285156 14.515625 C 0.285156 22.53125 6.785156 29.03125 14.800781 29.03125 C 22.820312 29.03125 29.320312 22.53125 29.320312 14.515625 C 29.320312 6.5 22.820312 0 14.800781 0 Z M 14.800781 0 " clip-rule="nonzero"/></clipPath><clipPath id="940d36b6b9"><rect x="0" width="30" y="0" height="30"/></clipPath><clipPath id="00ad7ae3eb"><path d="M 2.667969 2.273438 L 26.933594 2.273438 L 26.933594 26.824219 L 2.667969 26.824219 Z M 2.667969 2.273438 " clip-rule="nonzero"/></clipPath><clipPath id="bb944cedfb"><path d="M 14.800781 2.273438 C 8.101562 2.273438 2.667969 7.753906 2.667969 14.515625 C 2.667969 21.277344 8.101562 26.757812 14.800781 26.757812 C 21.503906 26.757812 26.933594 21.277344 26.933594 14.515625 C 26.933594 7.753906 21.503906 2.273438 14.800781 2.273438 Z M 14.800781 2.273438 " clip-rule="nonzero"/></clipPath><clipPath id="91add6b219"><path d="M 0.667969 0.273438 L 24.933594 0.273438 L 24.933594 24.824219 L 0.667969 24.824219 Z M 0.667969 0.273438 " clip-rule="nonzero"/></clipPath><clipPath id="7d33e7f173"><path d="M 12.800781 0.273438 C 6.101562 0.273438 0.667969 5.753906 0.667969 12.515625 C 0.667969 19.277344 6.101562 24.757812 12.800781 24.757812 C 19.503906 24.757812 24.933594 19.277344 24.933594 12.515625 C 24.933594 5.753906 19.503906 0.273438 12.800781 0.273438 Z M 12.800781 0.273438 " clip-rule="nonzero"/></clipPath><clipPath id="8b95cffb56"><rect x="0" width="25" y="0" height="25"/></clipPath><clipPath id="9fde93ea27"><rect x="0" width="30" y="0" height="30"/></clipPath><clipPath id="d3ff436b42"><rect x="0" width="90" y="0" height="23"/></clipPath></defs><g clip-path="url(#eb69c98bf4)"><g transform="matrix(1, 0, 0, 1, 2, 0.000000000000005692)"><g clip-path="url(#9fde93ea27)"><g clip-path="url(#3a89885e97)"><g clip-path="url(#584e2f01de)"><g transform="matrix(1, 0, 0, 1, 0, 0.000000000000005692)"><g clip-path="url(#940d36b6b9)"><g clip-path="url(#0b5c24abe2)"><g clip-path="url(#c72cc9cf7c)"><path fill="#1c274c" d="M 0.285156 0 L 29.320312 0 L 29.320312 29.03125 L 0.285156 29.03125 Z M 0.285156 0 " fill-opacity="1" fill-rule="nonzero"/></g></g></g></g></g></g><g clip-path="url(#00ad7ae3eb)"><g clip-path="url(#bb944cedfb)"><g transform="matrix(1, 0, 0, 1, 2, 2)"><g clip-path="url(#8b95cffb56)"><g clip-path="url(#91add6b219)"><g clip-path="url(#7d33e7f173)"><path fill="#3c50e0" d="M 0.667969 0.273438 L 24.933594 0.273438 L 24.933594 24.730469 L 0.667969 24.730469 Z M 0.667969 0.273438 " fill-opacity="1" fill-rule="nonzero"/></g></g></g></g></g></g><g fill="#ffffff" fill-opacity="1"><g transform="translate(4.792451, 19.530911)"><g><path d="M 8.875 -7.265625 C 8.59375 -7.859375 8.179688 -8.316406 7.640625 -8.640625 C 7.109375 -8.972656 6.484375 -9.140625 5.765625 -9.140625 C 5.046875 -9.140625 4.398438 -8.972656 3.828125 -8.640625 C 3.265625 -8.316406 2.816406 -7.847656 2.484375 -7.234375 C 2.160156 -6.628906 2 -5.925781 2 -5.125 C 2 -4.320312 2.160156 -3.613281 2.484375 -3 C 2.816406 -2.394531 3.265625 -1.925781 3.828125 -1.59375 C 4.398438 -1.269531 5.046875 -1.109375 5.765625 -1.109375 C 6.765625 -1.109375 7.585938 -1.40625 8.234375 -2 C 8.878906 -2.601562 9.253906 -3.414062 9.359375 -4.4375 L 5.28125 -4.4375 L 5.28125 -5.515625 L 10.78125 -5.515625 L 10.78125 -4.484375 C 10.707031 -3.648438 10.441406 -2.878906 9.984375 -2.171875 C 9.535156 -1.472656 8.941406 -0.921875 8.203125 -0.515625 C 7.472656 -0.109375 6.660156 0.09375 5.765625 0.09375 C 4.816406 0.09375 3.953125 -0.128906 3.171875 -0.578125 C 2.390625 -1.023438 1.769531 -1.644531 1.3125 -2.4375 C 0.851562 -3.226562 0.625 -4.125 0.625 -5.125 C 0.625 -6.113281 0.851562 -7.007812 1.3125 -7.8125 C 1.769531 -8.613281 2.390625 -9.234375 3.171875 -9.671875 C 3.953125 -10.117188 4.816406 -10.34375 5.765625 -10.34375 C 6.847656 -10.34375 7.804688 -10.070312 8.640625 -9.53125 C 9.484375 -9 10.09375 -8.242188 10.46875 -7.265625 Z M 8.875 -7.265625 "/></g></g></g><g fill="#ffffff" fill-opacity="1"><g transform="translate(16.201981, 19.530911)"><g><path d="M 4.375 0.109375 C 3.695312 0.109375 3.09375 -0.0078125 2.5625 -0.25 C 2.03125 -0.488281 1.609375 -0.820312 1.296875 -1.25 C 0.992188 -1.675781 0.84375 -2.171875 0.84375 -2.734375 L 2.265625 -2.734375 C 2.304688 -2.253906 2.5 -1.847656 2.84375 -1.515625 C 3.195312 -1.191406 3.707031 -1.03125 4.375 -1.03125 C 5.007812 -1.03125 5.507812 -1.1875 5.875 -1.5 C 6.238281 -1.820312 6.421875 -2.234375 6.421875 -2.734375 C 6.421875 -3.117188 6.3125 -3.429688 6.09375 -3.671875 C 5.882812 -3.921875 5.617188 -4.109375 5.296875 -4.234375 C 4.972656 -4.367188 4.535156 -4.507812 3.984375 -4.65625 C 3.316406 -4.832031 2.78125 -5.003906 2.375 -5.171875 C 1.96875 -5.347656 1.617188 -5.625 1.328125 -6 C 1.035156 -6.382812 0.890625 -6.894531 0.890625 -7.53125 C 0.890625 -8.082031 1.03125 -8.570312 1.3125 -9 C 1.601562 -9.4375 2.003906 -9.769531 2.515625 -10 C 3.023438 -10.238281 3.613281 -10.359375 4.28125 -10.359375 C 5.238281 -10.359375 6.023438 -10.117188 6.640625 -9.640625 C 7.253906 -9.160156 7.597656 -8.523438 7.671875 -7.734375 L 6.203125 -7.734375 C 6.160156 -8.117188 5.957031 -8.460938 5.59375 -8.765625 C 5.226562 -9.066406 4.75 -9.21875 4.15625 -9.21875 C 3.59375 -9.21875 3.132812 -9.070312 2.78125 -8.78125 C 2.4375 -8.488281 2.265625 -8.085938 2.265625 -7.578125 C 2.265625 -7.203125 2.367188 -6.894531 2.578125 -6.65625 C 2.785156 -6.425781 3.039062 -6.25 3.34375 -6.125 C 3.65625 -6 4.09375 -5.859375 4.65625 -5.703125 C 5.320312 -5.515625 5.859375 -5.332031 6.265625 -5.15625 C 6.679688 -4.976562 7.035156 -4.695312 7.328125 -4.3125 C 7.628906 -3.9375 7.78125 -3.425781 7.78125 -2.78125 C 7.78125 -2.289062 7.644531 -1.820312 7.375 -1.375 C 7.113281 -0.9375 6.722656 -0.578125 6.203125 -0.296875 C 5.679688 -0.0234375 5.070312 0.109375 4.375 0.109375 Z M 4.375 0.109375 "/></g></g></g></g></g></g><g transform="matrix(1, 0, 0, 1, 36, 3)"><g clip-path="url(#d3ff436b42)"><g fill="#1c274c" fill-opacity="1"><g transform="translate(0.587096, 16.790227)"><g><path d="M 9.03125 -7.734375 C 8.75 -8.273438 8.359375 -8.679688 7.859375 -8.953125 C 7.359375 -9.234375 6.78125 -9.375 6.125 -9.375 C 5.40625 -9.375 4.765625 -9.210938 4.203125 -8.890625 C 3.640625 -8.566406 3.195312 -8.109375 2.875 -7.515625 C 2.5625 -6.921875 2.40625 -6.234375 2.40625 -5.453125 C 2.40625 -4.671875 2.5625 -3.976562 2.875 -3.375 C 3.195312 -2.78125 3.640625 -2.320312 4.203125 -2 C 4.765625 -1.675781 5.40625 -1.515625 6.125 -1.515625 C 7.09375 -1.515625 7.878906 -1.785156 8.484375 -2.328125 C 9.085938 -2.867188 9.457031 -3.601562 9.59375 -4.53125 L 5.515625 -4.53125 L 5.515625 -5.953125 L 11.5 -5.953125 L 11.5 -4.5625 C 11.382812 -3.71875 11.082031 -2.941406 10.59375 -2.234375 C 10.113281 -1.523438 9.484375 -0.957031 8.703125 -0.53125 C 7.929688 -0.113281 7.070312 0.09375 6.125 0.09375 C 5.101562 0.09375 4.171875 -0.140625 3.328125 -0.609375 C 2.484375 -1.085938 1.8125 -1.75 1.3125 -2.59375 C 0.820312 -3.4375 0.578125 -4.390625 0.578125 -5.453125 C 0.578125 -6.515625 0.820312 -7.46875 1.3125 -8.3125 C 1.8125 -9.15625 2.484375 -9.8125 3.328125 -10.28125 C 4.179688 -10.757812 5.113281 -11 6.125 -11 C 7.28125 -11 8.304688 -10.710938 9.203125 -10.140625 C 10.109375 -9.578125 10.765625 -8.773438 11.171875 -7.734375 Z M 9.03125 -7.734375 "/></g></g></g><g fill="#1c274c" fill-opacity="1"><g transform="translate(12.665532, 16.790227)"><g><path d="M 4.90625 0.140625 C 4.09375 0.140625 3.359375 -0.0390625 2.703125 -0.40625 C 2.046875 -0.78125 1.53125 -1.300781 1.15625 -1.96875 C 0.78125 -2.644531 0.59375 -3.425781 0.59375 -4.3125 C 0.59375 -5.1875 0.785156 -5.960938 1.171875 -6.640625 C 1.554688 -7.316406 2.082031 -7.835938 2.75 -8.203125 C 3.414062 -8.566406 4.160156 -8.75 4.984375 -8.75 C 5.804688 -8.75 6.550781 -8.566406 7.21875 -8.203125 C 7.882812 -7.835938 8.410156 -7.316406 8.796875 -6.640625 C 9.179688 -5.960938 9.375 -5.1875 9.375 -4.3125 C 9.375 -3.4375 9.175781 -2.660156 8.78125 -1.984375 C 8.382812 -1.304688 7.84375 -0.78125 7.15625 -0.40625 C 6.476562 -0.0390625 5.726562 0.140625 4.90625 0.140625 Z M 4.90625 -1.40625 C 5.363281 -1.40625 5.789062 -1.515625 6.1875 -1.734375 C 6.59375 -1.953125 6.921875 -2.28125 7.171875 -2.71875 C 7.421875 -3.15625 7.546875 -3.6875 7.546875 -4.3125 C 7.546875 -4.9375 7.425781 -5.460938 7.1875 -5.890625 C 6.945312 -6.328125 6.628906 -6.65625 6.234375 -6.875 C 5.835938 -7.09375 5.410156 -7.203125 4.953125 -7.203125 C 4.492188 -7.203125 4.066406 -7.09375 3.671875 -6.875 C 3.285156 -6.65625 2.976562 -6.328125 2.75 -5.890625 C 2.519531 -5.460938 2.40625 -4.9375 2.40625 -4.3125 C 2.40625 -3.382812 2.640625 -2.664062 3.109375 -2.15625 C 3.585938 -1.65625 4.1875 -1.40625 4.90625 -1.40625 Z M 4.90625 -1.40625 "/></g></g></g><g fill="#1c274c" fill-opacity="1"><g transform="translate(22.634536, 16.790227)"><g><path d="M 2.953125 -7.328125 C 3.253906 -7.742188 3.664062 -8.082031 4.1875 -8.34375 C 4.71875 -8.613281 5.304688 -8.75 5.953125 -8.75 C 6.710938 -8.75 7.398438 -8.566406 8.015625 -8.203125 C 8.628906 -7.835938 9.113281 -7.316406 9.46875 -6.640625 C 9.820312 -5.972656 10 -5.207031 10 -4.34375 C 10 -3.476562 9.820312 -2.703125 9.46875 -2.015625 C 9.113281 -1.335938 8.625 -0.804688 8 -0.421875 C 7.382812 -0.046875 6.703125 0.140625 5.953125 0.140625 C 5.285156 0.140625 4.691406 0.0078125 4.171875 -0.25 C 3.660156 -0.507812 3.253906 -0.84375 2.953125 -1.25 L 2.953125 0 L 1.171875 0 L 1.171875 -11.5625 L 2.953125 -11.5625 Z M 8.1875 -4.34375 C 8.1875 -4.9375 8.0625 -5.445312 7.8125 -5.875 C 7.570312 -6.3125 7.25 -6.640625 6.84375 -6.859375 C 6.445312 -7.085938 6.019531 -7.203125 5.5625 -7.203125 C 5.113281 -7.203125 4.6875 -7.085938 4.28125 -6.859375 C 3.882812 -6.628906 3.5625 -6.296875 3.3125 -5.859375 C 3.070312 -5.421875 2.953125 -4.90625 2.953125 -4.3125 C 2.953125 -3.71875 3.070312 -3.195312 3.3125 -2.75 C 3.5625 -2.3125 3.882812 -1.976562 4.28125 -1.75 C 4.6875 -1.519531 5.113281 -1.40625 5.5625 -1.40625 C 6.019531 -1.40625 6.445312 -1.519531 6.84375 -1.75 C 7.25 -1.988281 7.570312 -2.332031 7.8125 -2.78125 C 8.0625 -3.226562 8.1875 -3.75 8.1875 -4.34375 Z M 8.1875 -4.34375 "/></g></g></g><g fill="#1c274c" fill-opacity="1"><g transform="translate(33.228555, 16.790227)"><g><path d="M 0.578125 -4.34375 C 0.578125 -5.207031 0.753906 -5.972656 1.109375 -6.640625 C 1.472656 -7.304688 1.960938 -7.820312 2.578125 -8.1875 C 3.203125 -8.5625 3.890625 -8.75 4.640625 -8.75 C 5.316406 -8.75 5.90625 -8.613281 6.40625 -8.34375 C 6.914062 -8.082031 7.320312 -7.753906 7.625 -7.359375 L 7.625 -8.609375 L 9.421875 -8.609375 L 9.421875 0 L 7.625 0 L 7.625 -1.28125 C 7.320312 -0.875 6.910156 -0.535156 6.390625 -0.265625 C 5.867188 0.00390625 5.273438 0.140625 4.609375 0.140625 C 3.867188 0.140625 3.191406 -0.046875 2.578125 -0.421875 C 1.960938 -0.804688 1.472656 -1.335938 1.109375 -2.015625 C 0.753906 -2.703125 0.578125 -3.476562 0.578125 -4.34375 Z M 7.625 -4.3125 C 7.625 -4.90625 7.5 -5.421875 7.25 -5.859375 C 7.007812 -6.296875 6.691406 -6.628906 6.296875 -6.859375 C 5.898438 -7.085938 5.472656 -7.203125 5.015625 -7.203125 C 4.554688 -7.203125 4.128906 -7.085938 3.734375 -6.859375 C 3.335938 -6.640625 3.015625 -6.3125 2.765625 -5.875 C 2.523438 -5.445312 2.40625 -4.9375 2.40625 -4.34375 C 2.40625 -3.75 2.523438 -3.226562 2.765625 -2.78125 C 3.015625 -2.332031 3.335938 -1.988281 3.734375 -1.75 C 4.140625 -1.519531 4.566406 -1.40625 5.015625 -1.40625 C 5.472656 -1.40625 5.898438 -1.519531 6.296875 -1.75 C 6.691406 -1.976562 7.007812 -2.3125 7.25 -2.75 C 7.5 -3.195312 7.625 -3.71875 7.625 -4.3125 Z M 7.625 -4.3125 "/></g></g></g><g fill="#1c274c" fill-opacity="1"><g transform="translate(43.822574, 16.790227)"><g><path d="M 2.953125 -11.5625 L 2.953125 0 L 1.171875 0 L 1.171875 -11.5625 Z M 2.953125 -11.5625 "/></g></g></g><g fill="#1c274c" fill-opacity="1"><g transform="translate(47.947679, 16.790227)"><g><path d="M 4.75 0.109375 C 4.019531 0.109375 3.363281 -0.015625 2.78125 -0.265625 C 2.195312 -0.523438 1.738281 -0.890625 1.40625 -1.359375 C 1.070312 -1.828125 0.90625 -2.375 0.90625 -3 L 2.8125 -3 C 2.851562 -2.53125 3.035156 -2.144531 3.359375 -1.84375 C 3.691406 -1.539062 4.15625 -1.390625 4.75 -1.390625 C 5.363281 -1.390625 5.84375 -1.535156 6.1875 -1.828125 C 6.53125 -2.128906 6.703125 -2.515625 6.703125 -2.984375 C 6.703125 -3.347656 6.59375 -3.644531 6.375 -3.875 C 6.164062 -4.101562 5.898438 -4.28125 5.578125 -4.40625 C 5.265625 -4.53125 4.828125 -4.664062 4.265625 -4.8125 C 3.554688 -5 2.976562 -5.1875 2.53125 -5.375 C 2.09375 -5.570312 1.71875 -5.875 1.40625 -6.28125 C 1.09375 -6.6875 0.9375 -7.226562 0.9375 -7.90625 C 0.9375 -8.53125 1.09375 -9.078125 1.40625 -9.546875 C 1.71875 -10.015625 2.15625 -10.375 2.71875 -10.625 C 3.28125 -10.875 3.929688 -11 4.671875 -11 C 5.722656 -11 6.582031 -10.734375 7.25 -10.203125 C 7.925781 -9.679688 8.300781 -8.960938 8.375 -8.046875 L 6.40625 -8.046875 C 6.375 -8.441406 6.1875 -8.78125 5.84375 -9.0625 C 5.5 -9.34375 5.046875 -9.484375 4.484375 -9.484375 C 3.972656 -9.484375 3.554688 -9.351562 3.234375 -9.09375 C 2.910156 -8.832031 2.75 -8.457031 2.75 -7.96875 C 2.75 -7.632812 2.847656 -7.359375 3.046875 -7.140625 C 3.253906 -6.929688 3.515625 -6.765625 3.828125 -6.640625 C 4.140625 -6.515625 4.566406 -6.378906 5.109375 -6.234375 C 5.828125 -6.035156 6.410156 -5.835938 6.859375 -5.640625 C 7.316406 -5.441406 7.703125 -5.132812 8.015625 -4.71875 C 8.335938 -4.3125 8.5 -3.765625 8.5 -3.078125 C 8.5 -2.523438 8.347656 -2.003906 8.046875 -1.515625 C 7.753906 -1.023438 7.320312 -0.628906 6.75 -0.328125 C 6.1875 -0.0351562 5.519531 0.109375 4.75 0.109375 Z M 4.75 0.109375 "/></g></g></g><g fill="#1c274c" fill-opacity="1"><g transform="translate(57.385419, 16.790227)"><g><path d="M 3.25 -7.15625 L 3.25 -2.390625 C 3.25 -2.066406 3.320312 -1.832031 3.46875 -1.6875 C 3.625 -1.550781 3.882812 -1.484375 4.25 -1.484375 L 5.34375 -1.484375 L 5.34375 0 L 3.9375 0 C 3.132812 0 2.519531 -0.1875 2.09375 -0.5625 C 1.664062 -0.9375 1.453125 -1.546875 1.453125 -2.390625 L 1.453125 -7.15625 L 0.4375 -7.15625 L 0.4375 -8.609375 L 1.453125 -8.609375 L 1.453125 -10.75 L 3.25 -10.75 L 3.25 -8.609375 L 5.34375 -8.609375 L 5.34375 -7.15625 Z M 3.25 -7.15625 "/></g></g></g><g fill="#1c274c" fill-opacity="1"><g transform="translate(63.198067, 16.790227)"><g><path d="M 4.90625 0.140625 C 4.09375 0.140625 3.359375 -0.0390625 2.703125 -0.40625 C 2.046875 -0.78125 1.53125 -1.300781 1.15625 -1.96875 C 0.78125 -2.644531 0.59375 -3.425781 0.59375 -4.3125 C 0.59375 -5.1875 0.785156 -5.960938 1.171875 -6.640625 C 1.554688 -7.316406 2.082031 -7.835938 2.75 -8.203125 C 3.414062 -8.566406 4.160156 -8.75 4.984375 -8.75 C 5.804688 -8.75 6.550781 -8.566406 7.21875 -8.203125 C 7.882812 -7.835938 8.410156 -7.316406 8.796875 -6.640625 C 9.179688 -5.960938 9.375 -5.1875 9.375 -4.3125 C 9.375 -3.4375 9.175781 -2.660156 8.78125 -1.984375 C 8.382812 -1.304688 7.84375 -0.78125 7.15625 -0.40625 C 6.476562 -0.0390625 5.726562 0.140625 4.90625 0.140625 Z M 4.90625 -1.40625 C 5.363281 -1.40625 5.789062 -1.515625 6.1875 -1.734375 C 6.59375 -1.953125 6.921875 -2.28125 7.171875 -2.71875 C 7.421875 -3.15625 7.546875 -3.6875 7.546875 -4.3125 C 7.546875 -4.9375 7.425781 -5.460938 7.1875 -5.890625 C 6.945312 -6.328125 6.628906 -6.65625 6.234375 -6.875 C 5.835938 -7.09375 5.410156 -7.203125 4.953125 -7.203125 C 4.492188 -7.203125 4.066406 -7.09375 3.671875 -6.875 C 3.285156 -6.65625 2.976562 -6.328125 2.75 -5.890625 C 2.519531 -5.460938 2.40625 -4.9375 2.40625 -4.3125 C 2.40625 -3.382812 2.640625 -2.664062 3.109375 -2.15625 C 3.585938 -1.65625 4.1875 -1.40625 4.90625 -1.40625 Z M 4.90625 -1.40625 "/></g></g></g><g fill="#1c274c" fill-opacity="1"><g transform="translate(73.167071, 16.790227)"><g><path d="M 2.953125 -7.359375 C 3.210938 -7.796875 3.554688 -8.132812 3.984375 -8.375 C 4.421875 -8.625 4.9375 -8.75 5.53125 -8.75 L 5.53125 -6.90625 L 5.078125 -6.90625 C 4.378906 -6.90625 3.847656 -6.726562 3.484375 -6.375 C 3.128906 -6.019531 2.953125 -5.40625 2.953125 -4.53125 L 2.953125 0 L 1.171875 0 L 1.171875 -8.609375 L 2.953125 -8.609375 Z M 2.953125 -7.359375 "/></g></g></g><g fill="#1c274c" fill-opacity="1"><g transform="translate(79.167224, 16.790227)"><g><path d="M 9.0625 -4.515625 C 9.0625 -4.191406 9.039062 -3.898438 9 -3.640625 L 2.421875 -3.640625 C 2.472656 -2.953125 2.726562 -2.398438 3.1875 -1.984375 C 3.644531 -1.566406 4.207031 -1.359375 4.875 -1.359375 C 5.832031 -1.359375 6.507812 -1.757812 6.90625 -2.5625 L 8.828125 -2.5625 C 8.566406 -1.769531 8.09375 -1.117188 7.40625 -0.609375 C 6.726562 -0.109375 5.882812 0.140625 4.875 0.140625 C 4.050781 0.140625 3.3125 -0.0390625 2.65625 -0.40625 C 2.007812 -0.78125 1.5 -1.300781 1.125 -1.96875 C 0.757812 -2.644531 0.578125 -3.425781 0.578125 -4.3125 C 0.578125 -5.195312 0.753906 -5.972656 1.109375 -6.640625 C 1.472656 -7.316406 1.976562 -7.835938 2.625 -8.203125 C 3.28125 -8.566406 4.03125 -8.75 4.875 -8.75 C 5.6875 -8.75 6.410156 -8.570312 7.046875 -8.21875 C 7.679688 -7.863281 8.175781 -7.363281 8.53125 -6.71875 C 8.882812 -6.082031 9.0625 -5.347656 9.0625 -4.515625 Z M 7.203125 -5.078125 C 7.191406 -5.734375 6.957031 -6.257812 6.5 -6.65625 C 6.039062 -7.050781 5.472656 -7.25 4.796875 -7.25 C 4.179688 -7.25 3.65625 -7.050781 3.21875 -6.65625 C 2.78125 -6.269531 2.519531 -5.742188 2.4375 -5.078125 Z M 7.203125 -5.078125 "/></g></g></g></g></g></svg>