<svg xmlns="http://www.w3.org/2000/svg" xmlns:xlink="http://www.w3.org/1999/xlink" width="150" zoomAndPan="magnify" viewBox="0 0 112.5 74.999997" height="100" preserveAspectRatio="xMidYMid meet" version="1.0"><defs><clipPath id="09c8809b4d"><path d="M 0 0.164062 L 112.003906 0.164062 L 112.003906 74.832031 L 0 74.832031 Z M 0 0.164062 " clip-rule="nonzero"/></clipPath></defs><g clip-path="url(#09c8809b4d)"><path fill="#ffffff" d="M 0 0.164062 L 112.003906 0.164062 L 112.003906 74.835938 L 0 74.835938 Z M 0 0.164062 " fill-opacity="1" fill-rule="nonzero"/><path fill="#ffffff" d="M 0 0.164062 L 112.003906 0.164062 L 112.003906 74.835938 L 0 74.835938 Z M 0 0.164062 " fill-opacity="1" fill-rule="nonzero"/></g><path fill="#3366cc" d="M 29.832031 3.175781 C 29.703125 3.199219 29.304688 3.28125 28.953125 3.351562 C 25.027344 4.117188 21.75 7.617188 20.832031 12.035156 C 20.75 12.386719 20.65625 13.550781 20.621094 14.621094 L 20.550781 16.558594 L 17.261719 16.617188 C 14.207031 16.675781 13.949219 16.6875 13.65625 16.910156 C 13.476562 17.039062 13.277344 17.332031 13.21875 17.558594 C 13.042969 18.191406 12.691406 20.46875 11.738281 27.367188 C 11.257812 30.855469 10.625 35.34375 10.339844 37.355469 C 10.046875 39.351562 9.601562 42.582031 9.332031 44.519531 C 9.074219 46.460938 8.730469 48.890625 8.566406 49.925781 C 8.167969 52.59375 7.804688 55.484375 7.804688 56.070312 C 7.804688 56.726562 8.050781 57.1875 8.589844 57.5625 L 9.035156 57.855469 L 29.152344 57.855469 C 40.6875 57.855469 49.382812 57.808594 49.535156 57.75 C 49.863281 57.621094 50.21875 57.316406 50.488281 56.917969 C 50.652344 56.679688 50.6875 56.351562 50.6875 55.210938 C 50.6875 54.4375 50.640625 53.730469 50.582031 53.648438 C 50.535156 53.554688 50.015625 53.332031 49.441406 53.144531 C 48.867188 52.945312 48.03125 52.570312 47.574219 52.296875 C 46.386719 51.59375 45 50.148438 44.285156 48.878906 L 43.707031 47.835938 L 43.414062 48.234375 C 42.898438 48.9375 41.253906 50.511719 40.5 51.019531 C 38 52.710938 35.214844 53.507812 31.832031 53.507812 C 28.871094 53.507812 26.71875 53.027344 24.464844 51.886719 C 20.691406 49.960938 17.976562 46.246094 16.957031 41.605469 C 16.601562 40.019531 16.519531 36.308594 16.78125 34.5 C 17.554688 29.222656 19.683594 25.546875 23.3125 23.171875 C 26.601562 21.023438 31.042969 20.257812 35.402344 21.09375 C 37.445312 21.492188 39.089844 22.199219 40.816406 23.40625 C 42.261719 24.417969 44.554688 26.851562 44.273438 27.050781 C 44.203125 27.097656 43.367188 27.789062 42.414062 28.601562 C 39.300781 31.222656 39.410156 31.152344 39.21875 30.878906 C 37.761719 28.835938 35.976562 27.53125 34.097656 27.121094 C 33.097656 26.910156 30.960938 26.921875 30.007812 27.144531 C 25.96875 28.097656 23.488281 32.078125 23.523438 37.589844 C 23.546875 43.074219 26.238281 46.824219 30.632812 47.515625 C 33.167969 47.929688 36.023438 47 37.574219 45.285156 L 38 44.804688 L 37.976562 42.839844 L 37.941406 40.878906 L 32.183594 40.761719 L 32.183594 35.589844 L 33.0625 35.519531 C 34.261719 35.414062 42.097656 35.402344 43.085938 35.496094 L 43.871094 35.566406 L 43.871094 38.644531 L 44.296875 37.882812 C 45.328125 36.027344 46.867188 34.5 48.515625 33.699219 L 49.59375 33.183594 L 49.382812 31.621094 C 49.160156 30 48.902344 27.882812 48.089844 21.316406 C 47.832031 19.15625 47.5625 17.296875 47.515625 17.191406 C 47.246094 16.699219 47.105469 16.675781 44.273438 16.617188 L 41.535156 16.558594 L 41.476562 14.503906 C 41.40625 11.257812 40.984375 9.789062 39.492188 7.570312 C 37.941406 5.265625 35.542969 3.726562 32.804688 3.28125 C 31.792969 3.117188 30.386719 3.070312 29.832031 3.175781 Z M 33.40625 6.101562 C 34.566406 6.464844 35.882812 7.335938 36.707031 8.25 C 37.375 9.003906 38.246094 10.671875 38.539062 11.742188 C 38.667969 12.210938 38.75 13.128906 38.785156 14.527344 L 38.84375 16.617188 L 23.160156 16.617188 L 23.230469 14.878906 C 23.324219 12.527344 23.628906 11.328125 24.511719 9.800781 C 26.4375 6.429688 29.890625 4.996094 33.40625 6.101562 Z M 33.40625 6.101562 " fill-opacity="1" fill-rule="nonzero"/><path fill="#3366cc" d="M 97.683594 40.054688 L 97.683594 51.746094 L 101.914062 51.746094 L 101.914062 28.367188 L 97.683594 28.367188 Z M 97.683594 40.054688 " fill-opacity="1" fill-rule="nonzero"/><path fill="#3366cc" d="M 62.082031 40.054688 L 62.082031 51.628906 L 66.3125 51.628906 L 66.3125 49.375 L 66.902344 50.019531 C 68.144531 51.382812 69.390625 51.898438 71.484375 51.910156 C 73.714844 51.921875 75.066406 51.371094 76.59375 49.820312 C 77.6875 48.726562 78.238281 47.761719 78.695312 46.1875 C 79.390625 43.78125 79.121094 40.832031 78.003906 38.585938 C 77.226562 37.035156 75.617188 35.542969 74.054688 34.921875 C 71.554688 33.910156 68.546875 34.488281 66.761719 36.296875 L 66.3125 36.742188 L 66.3125 28.484375 L 62.082031 28.484375 Z M 72.328125 38.515625 C 73.972656 39.292969 74.878906 41.195312 74.738281 43.582031 C 74.621094 45.753906 73.5625 47.363281 71.894531 47.953125 C 70.964844 48.28125 69.589844 48.234375 68.78125 47.835938 C 67.253906 47.082031 66.476562 45.90625 66.195312 43.910156 C 65.9375 42.019531 66.582031 40.089844 67.769531 39.140625 C 69.121094 38.082031 70.894531 37.835938 72.328125 38.515625 Z M 72.328125 38.515625 " fill-opacity="1" fill-rule="nonzero"/><path fill="#3366cc" d="M 50.863281 34.710938 C 49.441406 35.097656 48.394531 35.710938 47.269531 36.824219 C 46.433594 37.660156 46.164062 38.011719 45.707031 38.941406 C 45.410156 39.550781 45.023438 40.585938 44.859375 41.230469 C 44.039062 44.449219 45.164062 48.164062 47.539062 50.089844 C 49.089844 51.347656 50.628906 51.886719 52.683594 51.886719 C 54.164062 51.898438 55.164062 51.675781 56.351562 51.101562 C 58.6875 49.960938 60.109375 48.023438 60.699219 45.167969 C 61.132812 43.097656 60.816406 40.773438 59.816406 38.71875 C 58.886719 36.789062 56.984375 35.25 54.847656 34.710938 C 53.671875 34.40625 51.992188 34.40625 50.863281 34.710938 Z M 54.375 38.398438 C 55.714844 39.058594 56.527344 40.65625 56.644531 42.851562 C 56.75 44.71875 56.328125 46.082031 55.316406 47.164062 C 54.589844 47.953125 53.800781 48.28125 52.683594 48.269531 C 51.96875 48.269531 51.699219 48.210938 51.214844 47.964844 C 50.617188 47.644531 50.089844 47.152344 49.664062 46.519531 C 48.65625 44.992188 48.621094 42.113281 49.582031 40.207031 C 50.582031 38.246094 52.542969 37.507812 54.375 38.398438 Z M 54.375 38.398438 " fill-opacity="1" fill-rule="nonzero"/><path fill="#3366cc" d="M 86.402344 34.558594 C 85.664062 34.6875 84.335938 35.097656 83.796875 35.367188 C 83.066406 35.746094 82.1875 36.542969 81.703125 37.285156 C 81.351562 37.847656 80.835938 39.515625 80.976562 39.667969 C 81.058594 39.75 83.433594 39.996094 84.125 39.996094 C 84.429688 39.996094 84.511719 39.925781 84.6875 39.527344 C 85.183594 38.410156 86.25 37.835938 87.824219 37.835938 C 88.964844 37.847656 89.929688 38.269531 90.433594 39 C 90.761719 39.480469 91.09375 40.890625 90.902344 41.054688 C 90.855469 41.101562 89.648438 41.253906 88.226562 41.394531 C 84.277344 41.785156 82.761719 42.242188 81.597656 43.40625 C 79.765625 45.238281 79.578125 48.433594 81.199219 50.230469 C 82.1875 51.324219 83.46875 51.78125 85.523438 51.792969 C 87.507812 51.792969 89.082031 51.277344 90.46875 50.148438 L 91.105469 49.632812 L 91.105469 51.78125 L 91.820312 51.699219 C 92.21875 51.664062 93.136719 51.628906 93.863281 51.628906 L 95.179688 51.628906 L 95.074219 51.066406 C 95.015625 50.757812 94.933594 47.953125 94.910156 44.816406 C 94.851562 38.246094 94.839844 38.210938 93.792969 36.789062 C 92.609375 35.167969 90.808594 34.453125 88.015625 34.488281 C 87.285156 34.5 86.570312 34.535156 86.402344 34.558594 Z M 90.878906 45.132812 C 90.761719 45.929688 90.65625 46.296875 90.375 46.730469 C 89.152344 48.632812 86.085938 49.289062 84.757812 47.929688 C 84.40625 47.5625 84.347656 47.421875 84.3125 46.765625 C 84.277344 46.234375 84.3125 45.917969 84.453125 45.648438 C 84.710938 45.15625 85.441406 44.636719 86.132812 44.460938 C 86.910156 44.261719 90.785156 43.898438 90.914062 44.003906 C 90.972656 44.0625 90.960938 44.519531 90.878906 45.132812 Z M 90.878906 45.132812 " fill-opacity="1" fill-rule="nonzero"/><path fill="#3366cc" d="M 59.0625 56.808594 C 57.761719 57.046875 56.996094 57.902344 56.996094 59.136719 C 56.996094 59.875 57.21875 60.417969 57.691406 60.78125 C 57.867188 60.921875 58.617188 61.226562 59.371094 61.460938 C 60.875 61.921875 61.144531 62.097656 61.144531 62.542969 C 61.132812 63.660156 59.347656 63.847656 58.054688 62.859375 L 57.667969 62.554688 L 57.148438 63.085938 L 56.644531 63.601562 L 56.925781 63.847656 C 57.078125 63.988281 57.546875 64.269531 57.972656 64.46875 C 58.664062 64.8125 58.839844 64.847656 59.851562 64.847656 C 60.769531 64.847656 61.050781 64.800781 61.4375 64.589844 C 62.660156 63.929688 63.105469 62.660156 62.53125 61.5 C 62.203125 60.863281 61.695312 60.558594 60.378906 60.207031 C 59.160156 59.875 58.886719 59.746094 58.699219 59.347656 C 58.171875 58.242188 60.15625 57.714844 61.285156 58.65625 L 61.648438 58.960938 L 62.105469 58.445312 L 62.566406 57.914062 L 62.191406 57.597656 C 61.484375 57 60.039062 56.632812 59.0625 56.808594 Z M 59.0625 56.808594 " fill-opacity="1" fill-rule="nonzero"/><path fill="#3366cc" d="M 76.652344 57 C 75.066406 57.5625 73.949219 59.160156 73.949219 60.851562 C 73.949219 61.402344 74.183594 62.355469 74.457031 62.847656 C 74.761719 63.4375 75.546875 64.152344 76.265625 64.507812 C 76.875 64.8125 77.0625 64.847656 78.121094 64.847656 C 79.214844 64.847656 79.355469 64.824219 80.082031 64.457031 C 80.964844 64.023438 81.539062 63.425781 81.964844 62.484375 C 82.363281 61.605469 82.339844 60.03125 81.929688 59.136719 C 81.527344 58.289062 80.800781 57.5625 79.953125 57.175781 C 79.121094 56.773438 77.5 56.691406 76.652344 57 Z M 78.835938 58.335938 C 79.484375 58.503906 80.199219 59.195312 80.390625 59.828125 C 80.871094 61.414062 80.175781 62.929688 78.800781 63.332031 C 77.144531 63.8125 75.699219 62.660156 75.699219 60.851562 C 75.699219 59.6875 76.3125 58.738281 77.308594 58.382812 C 77.875 58.183594 78.167969 58.171875 78.835938 58.335938 Z M 78.835938 58.335938 " fill-opacity="1" fill-rule="nonzero"/><path fill="#3366cc" d="M 65.457031 57 C 65.410156 57.035156 65.375 57.351562 65.375 57.703125 L 65.375 58.324219 L 67.722656 58.324219 L 67.722656 64.800781 L 68.511719 64.765625 L 69.285156 64.730469 L 69.296875 61.558594 L 69.308594 58.382812 L 70.460938 58.347656 L 71.601562 58.3125 L 71.601562 56.917969 L 68.570312 56.917969 C 66.902344 56.917969 65.492188 56.953125 65.457031 57 Z M 65.457031 57 " fill-opacity="1" fill-rule="nonzero"/><path fill="#3366cc" d="M 85.523438 57.058594 C 85.488281 57.140625 85.476562 58.902344 85.488281 60.96875 L 85.523438 64.730469 L 86.320312 64.765625 L 87.109375 64.800781 L 87.109375 62.34375 L 87.765625 62.296875 C 88.132812 62.285156 88.460938 62.285156 88.519531 62.320312 C 88.566406 62.355469 88.824219 62.742188 89.105469 63.203125 C 90.070312 64.800781 90.058594 64.789062 91 64.789062 C 91.445312 64.789062 91.808594 64.753906 91.808594 64.71875 C 91.808594 64.648438 90.890625 63.121094 90.410156 62.402344 C 90.128906 61.957031 90.128906 61.945312 90.351562 61.816406 C 90.46875 61.757812 90.761719 61.5 91 61.261719 C 92.125 60.089844 91.785156 58.019531 90.339844 57.28125 C 89.789062 56.988281 89.648438 56.976562 87.671875 56.941406 C 86.003906 56.902344 85.570312 56.929688 85.523438 57.058594 Z M 89.707031 58.773438 C 90.351562 59.488281 90.058594 60.535156 89.128906 60.792969 C 88.894531 60.851562 88.34375 60.910156 87.90625 60.910156 L 87.109375 60.910156 L 87.109375 58.300781 L 88.238281 58.347656 C 89.339844 58.394531 89.375 58.40625 89.707031 58.773438 Z M 89.707031 58.773438 " fill-opacity="1" fill-rule="nonzero"/><path fill="#3366cc" d="M 95.097656 60.851562 L 95.097656 64.789062 L 97.707031 64.765625 L 100.328125 64.730469 L 100.316406 64.433594 C 100.316406 64.269531 100.304688 63.941406 100.292969 63.695312 L 100.269531 63.261719 L 96.613281 63.261719 L 96.648438 62.402344 L 96.683594 61.558594 L 100.042969 61.488281 L 100.007812 60.816406 L 99.972656 60.148438 L 96.683594 60.03125 L 96.683594 58.382812 L 98.480469 58.347656 L 100.269531 58.3125 L 100.292969 57.878906 C 100.292969 57.644531 100.304688 57.339844 100.316406 57.210938 C 100.328125 56.988281 100.246094 56.976562 97.707031 56.941406 L 95.097656 56.917969 Z M 95.097656 60.851562 " fill-opacity="1" fill-rule="nonzero"/></svg>