<?xml version="1.0" standalone="no"?>
<!DOCTYPE svg PUBLIC "-//W3C//DTD SVG 20010904//EN"
 "http://www.w3.org/TR/2001/REC-SVG-20010904/DTD/svg10.dtd">
<svg version="1.0" xmlns="http://www.w3.org/2000/svg"
 width="1080.000000pt" height="973.000000pt" viewBox="0 0 1080.000000 973.000000"
 preserveAspectRatio="xMidYMid meet">
<metadata>
Created by potrace 1.16, written by Peter Selinger 2001-2019
</metadata>
<g transform="translate(0.000000,973.000000) scale(0.100000,-0.100000)"
fill="#000000" stroke="none">
<path d="M3265 8434 c-11 -2 -45 -9 -75 -15 -334 -65 -613 -363 -691 -739 -7
-30 -15 -129 -18 -220 l-6 -165 -280 -5 c-260 -5 -282 -6 -307 -25 -15 -11
-32 -36 -37 -55 -15 -54 -45 -248 -126 -835 -41 -297 -95 -679 -119 -850 -25
-170 -63 -445 -86 -610 -22 -165 -51 -372 -65 -460 -34 -227 -65 -473 -65
-523 0 -56 21 -95 67 -127 l38 -25 1712 0 c982 0 1722 4 1735 9 28 11 58 37
81 71 14 20 17 48 17 145 0 66 -4 126 -9 133 -4 8 -48 27 -97 43 -49 17 -120
49 -159 72 -101 60 -219 183 -280 291 l-49 89 -25 -34 c-44 -60 -184 -194
-248 -237 -213 -144 -450 -212 -738 -212 -252 0 -435 41 -627 138 -321 164
-552 480 -639 875 -30 135 -37 451 -15 605 66 449 247 762 556 964 280 183
658 248 1029 177 174 -34 314 -94 461 -197 123 -86 318 -293 294 -310 -6 -4
-77 -63 -158 -132 -265 -223 -256 -217 -272 -194 -124 174 -276 285 -436 320
-85 18 -267 17 -348 -2 -344 -81 -555 -420 -552 -889 2 -467 231 -786 605
-845 216 -35 459 44 591 190 l36 41 -2 167 -3 167 -245 5 -245 5 0 220 0 220
75 6 c102 9 769 10 853 2 l67 -6 0 -131 0 -131 36 65 c88 158 219 288 359 356
l92 44 -18 133 c-19 138 -41 318 -110 877 -22 184 -45 342 -49 351 -23 42 -35
44 -276 49 l-233 5 -5 175 c-6 276 -42 401 -169 590 -132 196 -336 327 -569
365 -86 14 -206 18 -253 9z m304 -249 c99 -31 211 -105 281 -183 57 -64 131
-206 156 -297 11 -40 18 -118 21 -237 l5 -178 -667 0 -668 0 6 148 c8 200 34
302 109 432 164 287 458 409 757 315z"/>
<path d="M9040 5295 l0 -995 180 0 180 0 0 995 0 995 -180 0 -180 0 0 -995z"/>
<path d="M6010 5295 l0 -985 180 0 180 0 0 96 0 96 50 -55 c106 -116 212 -160
390 -161 190 -1 305 46 435 178 93 93 140 175 179 309 59 205 36 456 -59 647
-66 132 -203 259 -336 312 -213 86 -469 37 -621 -117 l-38 -38 0 351 0 352
-180 0 -180 0 0 -985z m872 131 c140 -66 217 -228 205 -431 -10 -185 -100
-322 -242 -372 -79 -28 -196 -24 -265 10 -130 64 -196 164 -220 334 -22 161
33 325 134 406 115 90 266 111 388 53z"/>
<path d="M5055 5750 c-121 -33 -210 -85 -306 -180 -71 -71 -94 -101 -133 -180
-25 -52 -58 -140 -72 -195 -70 -274 26 -590 228 -754 132 -107 263 -153 438
-153 126 -1 211 18 312 67 199 97 320 262 370 505 37 176 10 374 -75 549 -79
164 -241 295 -423 341 -100 26 -243 26 -339 0z m299 -314 c114 -56 183 -192
193 -379 9 -159 -27 -275 -113 -367 -62 -67 -129 -95 -224 -94 -61 0 -84 5
-125 26 -51 27 -96 69 -132 123 -86 130 -89 375 -7 537 85 167 252 230 408
154z"/>
<path d="M8080 5763 c-63 -11 -176 -46 -222 -69 -62 -32 -137 -100 -178 -163
-30 -48 -74 -190 -62 -203 7 -7 209 -28 268 -28 26 0 33 6 48 40 42 95 133
144 267 144 97 -1 179 -37 222 -99 28 -41 56 -161 40 -175 -4 -4 -107 -17
-228 -29 -336 -33 -465 -72 -564 -171 -156 -156 -172 -428 -34 -581 84 -93
193 -132 368 -133 169 0 303 44 421 140 l54 44 0 -91 0 -92 61 7 c34 3 112 6
174 6 l112 0 -9 48 c-5 26 -12 265 -14 532 -5 559 -6 562 -95 683 -101 138
-254 199 -492 196 -62 -1 -123 -4 -137 -6z m381 -900 c-10 -68 -19 -99 -43
-136 -104 -162 -365 -218 -478 -102 -30 31 -35 43 -38 99 -3 45 0 72 12 95 22
42 84 86 143 101 66 17 396 48 407 39 5 -5 4 -44 -3 -96z"/>
<path d="M5753 3869 c-111 -20 -176 -93 -176 -198 0 -63 19 -109 59 -140 15
-12 79 -38 143 -58 128 -39 151 -54 151 -92 -1 -95 -153 -111 -263 -27 l-33
26 -44 -45 -43 -44 24 -21 c13 -12 53 -36 89 -53 59 -29 74 -32 160 -32 78 0
102 4 135 22 104 56 142 164 93 263 -28 54 -71 80 -183 110 -104 28 -127 39
-143 73 -45 94 124 139 220 59 l31 -26 39 44 39 45 -32 27 c-60 51 -183 82
-266 67z"/>
<path d="M7250 3853 c-135 -48 -230 -184 -230 -328 0 -47 20 -128 43 -170 26
-50 93 -111 154 -141 52 -26 68 -29 158 -29 93 0 105 2 167 33 75 37 124 88
160 168 34 75 32 209 -3 285 -34 72 -96 134 -168 167 -71 34 -209 41 -281 15z
m186 -114 c55 -14 116 -73 132 -127 41 -135 -18 -264 -135 -298 -141 -41 -264
57 -264 211 0 99 52 180 137 210 48 17 73 18 130 4z"/>
<path d="M6297 3853 c-4 -3 -7 -30 -7 -60 l0 -53 100 0 100 0 0 -275 0 -276
67 3 66 3 1 270 1 270 98 3 97 3 0 59 0 60 -258 0 c-142 0 -262 -3 -265 -7z"/>
<path d="M8005 3848 c-3 -7 -4 -157 -3 -333 l3 -320 68 -3 67 -3 0 105 0 104
56 4 c31 1 59 1 64 -2 4 -3 26 -36 50 -75 82 -136 81 -135 161 -135 38 0 69 3
69 6 0 6 -78 136 -119 197 -24 38 -24 39 -5 50 10 5 35 27 55 47 96 100 67
276 -56 339 -47 25 -59 26 -227 29 -142 3 -179 1 -183 -10z m356 -146 c55 -61
30 -150 -49 -172 -20 -5 -67 -10 -104 -10 l-68 0 0 111 0 111 96 -4 c94 -4 97
-5 125 -36z"/>
<path d="M8820 3525 l0 -335 222 2 223 3 -1 25 c0 14 -1 42 -2 63 l-2 37 -155
0 -156 0 3 73 3 72 143 3 143 3 -3 57 -3 57 -140 5 -140 5 0 70 0 70 153 3
152 3 2 37 c0 20 1 46 2 57 1 19 -6 20 -222 23 l-222 2 0 -335z"/>
</g>
</svg>
